<svg width="148" height="36" viewBox="0 0 148 36" fill="none" xmlns="http://www.w3.org/2000/svg">
<rect width="36" height="36" rx="4" fill="#7E7E57" fill-opacity="0.08"/>
<path d="M14.625 12.375H16.875V9H27V11.25H23.625V13.5H20.25V14.625H21.375V15.75H22.5V16.875H23.625V18H24.75V19.125H29.25V20.25H30.375V28.125H29.25V29.25H21.375V28.125H19.125V30.375H6.75V21.375H7.875V11.25H10.125V7.875H12.375V5.625H14.625V12.375Z" fill="#3D3D39"/>
<path d="M28.125 20.25V21.375H29.25V27H28.125V28.125H22.5V27H21.375V21.375H22.5V20.25H28.125ZM19.125 20.25H18V21.375H13.5V16.875H14.625V15.75H19.125V20.25Z" fill="white"/>
<path d="M23.625 24.75H24.75V25.875H27V27H23.625V25.875H22.5V23.625H23.625V24.75ZM27 23.625H25.875V22.5H24.75V21.375H27V23.625ZM18 20.25H15.75V18H18V20.25Z" fill="#3D3D39"/>
<path d="M143.908 27.501L143.881 19.6037C143.881 18.6873 143.657 18.0045 143.208 17.5553C142.776 17.1061 142.174 16.8814 141.402 16.8814C140.791 16.8814 140.225 17.0791 139.704 17.4744C139.183 17.8697 138.724 18.3369 138.329 18.876V15.8303C138.617 15.4529 138.958 15.0936 139.353 14.7522C139.767 14.3928 140.234 14.1053 140.755 13.8897C141.276 13.6561 141.842 13.5393 142.453 13.5393C143.387 13.5393 144.223 13.7459 144.96 14.1592C145.696 14.5725 146.271 15.2014 146.685 16.0459C147.116 16.8725 147.331 17.9057 147.331 19.1455V27.501H143.908ZM134.906 27.501V13.8897H138.329V27.501H134.906Z" fill="#3D3D39"/>
<path d="M125.728 27.8244C124.543 27.8244 123.482 27.5908 122.548 27.1236C121.632 26.6564 120.904 25.9916 120.365 25.1291C119.844 24.2486 119.583 23.2064 119.583 22.0025V13.8896H123.06V21.3826C123.06 22.4248 123.303 23.2154 123.788 23.7545C124.291 24.2756 124.938 24.5361 125.728 24.5361C126.519 24.5361 127.157 24.2756 127.642 23.7545C128.145 23.2154 128.397 22.4248 128.397 21.3826V13.8896H131.874V22.0025C131.874 23.2064 131.604 24.2486 131.065 25.1291C130.526 25.9916 129.789 26.6564 128.855 27.1236C127.939 27.5908 126.896 27.8244 125.728 27.8244Z" fill="#3D3D39"/>
<path d="M103.182 27.501V9.44238H110.514C111.358 9.44238 112.185 9.55918 112.993 9.79277C113.802 10.0264 114.53 10.3857 115.176 10.8709C115.841 11.3381 116.362 11.94 116.74 12.6768C117.135 13.4135 117.333 14.285 117.333 15.2912C117.333 16.4053 117.036 17.3486 116.443 18.1213C115.868 18.876 115.105 19.451 114.152 19.8463C113.218 20.2236 112.212 20.4123 111.133 20.4123C110.864 20.4123 110.514 20.3854 110.082 20.3314C109.669 20.2596 109.229 20.1877 108.762 20.1158C108.294 20.026 107.854 19.9451 107.441 19.8732C107.046 19.7834 106.74 19.7115 106.524 19.6576V17.3666C107.01 17.5463 107.549 17.69 108.142 17.7979C108.753 17.9057 109.364 17.9596 109.974 17.9596C111.053 17.9596 111.906 17.717 112.535 17.2318C113.182 16.7467 113.505 16.0998 113.505 15.2912C113.505 14.4107 113.164 13.7549 112.481 13.3236C111.816 12.8924 110.999 12.6768 110.028 12.6768H106.929V27.501H103.182ZM113.209 27.501L106.524 19.6576L109.759 18.4986L118.141 27.501H113.209Z" fill="#3D3D39"/>
<path d="M94.4629 27.9053C93.4566 27.9053 92.5133 27.7346 91.6328 27.3932C90.7523 27.0338 89.9707 26.5397 89.2879 25.9107C88.623 25.2818 88.1019 24.5361 87.7246 23.6736C87.3472 22.8111 87.1586 21.8678 87.1586 20.8436C87.1586 19.5139 87.4551 18.301 88.048 17.2049C88.641 16.0908 89.4586 15.2014 90.5008 14.5365C91.5429 13.8717 92.7289 13.5393 94.0586 13.5393C95.3883 13.5393 96.5293 13.8268 97.4816 14.4018C98.4519 14.9768 99.1886 15.7764 99.6918 16.8006C100.213 17.8068 100.473 18.9748 100.473 20.3045V21.76H90.3121V19.415H97.1851C97.1492 18.7502 96.9695 18.2111 96.6461 17.7979C96.3226 17.3666 95.9273 17.0522 95.4601 16.8545C94.9929 16.6389 94.4988 16.5311 93.9777 16.5311C93.2769 16.5311 92.666 16.7107 92.1449 17.0701C91.6418 17.4295 91.2465 17.9326 90.959 18.5795C90.6715 19.2264 90.5277 19.9811 90.5277 20.8436C90.5277 21.6162 90.6984 22.299 91.0398 22.892C91.3812 23.485 91.8574 23.9522 92.4683 24.2936C93.0972 24.635 93.807 24.8057 94.5976 24.8057C95.6039 24.8057 96.5023 24.608 97.2929 24.2127C98.1015 23.8174 98.7394 23.4131 99.2066 22.9998V26.1803C98.9371 26.4318 98.5597 26.6924 98.0746 26.9619C97.5894 27.2314 97.0324 27.4561 96.4035 27.6357C95.7926 27.8154 95.1457 27.9053 94.4629 27.9053Z" fill="#3D3D39"/>
<path d="M81.3772 27.501V8.09473H84.8002V27.501H81.3772Z" fill="#3D3D39"/>
<path d="M72.1996 27.8244C71.0137 27.8244 69.9535 27.5908 69.0192 27.1236C68.1028 26.6564 67.375 25.9916 66.836 25.1291C66.3149 24.2486 66.0543 23.2064 66.0543 22.0025V13.8896H69.5313V21.3826C69.5313 22.4248 69.7739 23.2154 70.259 23.7545C70.7621 24.2756 71.409 24.5361 72.1996 24.5361C72.9903 24.5361 73.6282 24.2756 74.1133 23.7545C74.6164 23.2154 74.868 22.4248 74.868 21.3826V13.8896H78.3449V22.0025C78.3449 23.2064 78.0754 24.2486 77.5364 25.1291C76.9973 25.9916 76.2606 26.6564 75.3262 27.1236C74.4098 27.5908 73.3676 27.8244 72.1996 27.8244Z" fill="#3D3D39"/>
<path d="M44.6401 27.501V9.30762H45.9069L53.6155 17.3396L61.2702 9.30762H62.537V27.501H58.7905V16.5041L54.1546 21.5713H53.0765L48.3866 16.5041V27.501H44.6401Z" fill="#3D3D39"/>
</svg>
